<svg width="466" height="63" viewBox="0 0 466 63" fill="none" xmlns="http://www.w3.org/2000/svg">
<path fill-rule="evenodd" clip-rule="evenodd" d="M3.45085 0.889996C0.584521 2.04128 -0.552921 4.80253 0.916839 7.03886C2.38323 9.26849 8.37921 12.5714 15.8054 15.2387C18.8131 16.3196 20.6311 17.3283 19.8454 17.4818C19.0604 17.6352 17.6655 17.3594 16.746 16.8688C14.9262 15.8978 9.17088 15.6714 7.03902 16.4873C4.77843 17.3518 0.440659 24.5824 0.0511348 28.136C-0.495713 33.1311 3.34568 38.3618 11.4718 43.6872C15.0121 46.0066 18.7567 48.1196 19.7924 48.3812L21.6769 48.8567L20.0027 50.9781C16.5273 55.382 18.6482 59.7013 25.244 61.6533C27.6241 62.3585 30.8379 62.9346 32.3842 62.9346C35.8806 62.9346 43.5592 60.2983 46.8353 57.9731C48.1889 57.0121 50.4806 56.2264 51.9277 56.2264C55.0557 56.2264 59.4759 54.5066 61.4799 52.5093C63.1255 50.8691 63.3863 46.9658 61.9459 45.5303C61.4109 44.997 60.9086 42.5628 60.8295 40.1218C60.7395 37.3413 59.8915 34.0375 58.5597 31.2805C57.3903 28.8588 56.5599 26.8782 56.7147 26.8782C56.8687 26.8782 60.8657 28.5888 65.5964 30.6792C77.6615 36.0114 85.3098 38.2519 86.9142 36.9254C88.9047 35.2794 88.3907 34.1516 84.5804 31.8012C79.9482 28.9435 73.6493 26.6728 61.4412 23.4579C52.5688 21.121 51.1747 20.4904 47.775 17.2764C35.3826 5.56055 12.7018 -2.82465 3.45085 0.889996ZM130.69 1.64802C130.43 2.06728 126.618 15.3662 122.219 31.2C117.82 47.0337 114.01 60.6521 113.753 61.4622C113.33 62.7879 113.996 62.9346 120.413 62.9346H127.543L128.622 58.742L129.7 54.5494H137.456H145.211L146.289 58.742L147.367 62.9346H154.359C158.205 62.9346 161.351 62.7484 161.351 62.522C161.351 62.2948 157.565 48.5003 152.938 31.8674C148.311 15.2354 144.525 1.45935 144.525 1.25559C144.525 0.521887 131.153 0.900896 130.69 1.64802ZM174.564 1.41072C174.237 1.73606 173.971 15.7117 173.971 32.4687V62.9346H192.479H210.988V55.8072V48.6798H199.644H188.299L188.076 24.9916L187.852 1.30339L181.505 1.06189C178.013 0.92857 174.89 1.08621 174.564 1.41072ZM223.608 31.8758V62.9346H241.696H259.784V55.8072V48.6798H248.86H237.936L237.713 24.9916L237.489 1.30339L230.548 1.06022L223.608 0.816206V31.8758ZM290.632 1.44342C290.323 1.75032 290.071 15.7117 290.071 32.4687V62.9346H297.203H304.336L304.565 47.4589L304.794 31.9831L312.023 47.2492L319.251 62.5153L326.546 62.7577L333.84 63L333.618 32.1517L333.398 1.30339H326.668H319.937L319.516 16.93L319.096 32.5567L312.365 18.3245C308.664 10.4961 305.14 3.3695 304.535 2.48738C303.623 1.15581 302.398 0.884127 297.314 0.884127C293.948 0.884127 290.94 1.13568 290.632 1.44342ZM346.438 31.8934V62.9346H365.822H385.206L384.962 56.0168L384.718 49.099L372.308 48.8667L359.899 48.6353V44.0453V39.456H368.733H377.567V32.358V25.2599L368.943 25.0209L360.32 24.7819L360.067 20.4024L359.812 16.0228L372.265 15.7905L384.718 15.5582V8.43081V1.30339L365.578 1.07782L346.438 0.852264V31.8934ZM397.803 2.31799C397.829 3.1431 400.414 17.0256 403.55 33.1671L409.252 62.5153L416.337 62.7543L423.423 62.9941L427.618 46.6472C429.927 37.6566 432.049 30.5677 432.336 30.8948C432.623 31.2226 434.255 37.1501 435.961 44.0679C437.668 50.9857 439.439 58.0611 439.896 59.7901L440.729 62.9346H447.848C451.763 62.9346 454.972 62.6512 454.978 62.3057C454.983 61.9602 457.603 48.2815 460.799 31.9094C463.995 15.5373 466.319 1.84088 465.964 1.47361C465.61 1.10633 462.517 0.917667 459.092 1.05435L452.863 1.30339L449.836 15.9775C446.401 32.6305 447.142 32.7185 442.777 15.139C441.575 10.2965 440.195 5.09349 439.71 3.57661L438.83 0.818723L431.965 1.06105L425.1 1.30339L421.406 15.7897C419.374 23.7573 417.557 30.1208 417.367 29.9321C417.178 29.7426 415.787 23.224 414.279 15.4459L411.534 1.30339L404.646 1.06022C398.483 0.8422 397.763 0.974686 397.803 2.31799ZM17.101 5.53372C19.8588 6.24646 24.7056 8.01574 27.8714 9.46638C34.2308 12.3802 42.177 17.6562 40.2007 17.652C36.0985 17.6436 8.04017 7.70716 5.74004 5.44819C4.66401 4.39166 4.98707 4.23821 8.29761 4.23821C10.3815 4.23821 14.3432 4.82098 17.101 5.53372ZM19.3187 23.5434C20.1869 24.7073 21.1351 27.1214 21.4262 28.9075L21.9545 32.155L17.8077 29.9053C15.5269 28.6685 12.3847 26.4674 10.8257 25.015C8.23619 22.6035 8.1285 22.3175 9.58396 21.7297C12.8398 20.4158 17.6546 21.313 19.3187 23.5434ZM27.2825 21.8354C27.81 21.8421 28.478 22.7838 28.7666 23.9283C29.0551 25.0729 30.4584 27.3344 31.8853 28.9544L34.4807 31.901L31.7473 31.3559C29.644 30.9367 28.7539 31.1648 27.8866 32.3471C26.4033 34.3687 25.6714 33.4967 25.2726 29.232C25.0934 27.3101 24.3657 24.6193 23.6573 23.2533C22.3903 20.8116 22.4021 20.778 24.3455 21.2971C25.4325 21.5872 26.7542 21.8295 27.2825 21.8354ZM42.3065 26.8875C50.1492 30.613 54.8958 36.0122 50.9921 36.7669C49.4282 37.0696 38.0361 29.4961 34.6734 25.9173L32.2109 23.2969L34.7348 23.8931C36.1229 24.221 39.5302 25.5685 42.3065 26.8875ZM49.0311 25.192C49.3255 25.6666 48.9882 25.8075 48.2394 25.5215C46.7823 24.9639 46.5156 24.3627 47.7254 24.3627C48.1612 24.3627 48.7484 24.7358 49.0311 25.192ZM16.852 34.1977C19.7469 35.5745 24.2252 37.3128 26.8046 38.0591C29.3841 38.8062 32.205 40.2006 33.074 41.1574C33.9439 42.115 36.8927 44.3874 39.6278 46.2078L44.6016 49.5183H41.3171C33.4434 49.5183 16.3935 42.629 9.39467 36.6185C5.62562 33.3826 2.76182 28.3498 3.54003 26.3298C3.92282 25.3354 4.8491 25.7798 7.80881 28.3767C9.88767 30.2005 13.9571 32.82 16.852 34.1977ZM139.445 33.8925L141.041 39.456H137.735C135.749 39.456 134.429 39.0594 134.429 38.4632C134.429 36.87 137.155 27.6379 137.519 28.0002C137.7 28.1813 138.567 30.8327 139.445 33.8925ZM56.872 40.7314C56.1149 41.4853 54.3498 39.5466 54.9345 38.6033C55.4174 37.8251 55.7817 37.9232 56.3816 38.9923C56.8224 39.7772 57.0437 40.5604 56.872 40.7314ZM50.4117 43.8071C51.3758 45.1563 51.9529 46.4719 51.6938 46.7302C51.1831 47.2392 40.2033 42.3481 40.2033 41.6119C40.2033 41.3653 42.1054 41.206 44.4308 41.258C48.0913 41.3402 48.8939 41.6823 50.4117 43.8071ZM60.3946 49.0772C60.3946 50.4549 56.2612 52.874 53.9165 52.869C52.8489 52.8673 53.1821 52.3919 55.0447 51.2599C56.4977 50.3769 57.9396 49.2466 58.2492 48.7477C59.0645 47.432 60.3946 47.6366 60.3946 49.0772ZM32.0131 52.5361C43.0814 55.3653 44.4098 55.7711 44.4098 56.3187C44.4098 57.6351 37.2469 59.5805 32.4044 59.5788C23.9577 59.5772 18.697 55.9791 22.1329 52.5546C23.8382 50.8557 25.4266 50.8524 32.0131 52.5361Z" fill="#212121"/>
</svg>
